<?xml version="1.0" encoding="iso-8859-1"?>
<!-- Generator: Adobe Illustrator 19.0.0, SVG Export Plug-In . SVG Version: 6.00 Build 0)  -->
<svg version="1.1" id="Layer_1" xmlns="http://www.w3.org/2000/svg" xmlns:xlink="http://www.w3.org/1999/xlink" x="0px" y="0px"
	 viewBox="0 0 512.001 512.001" style="enable-background:new 0 0 512.001 512.001;" xml:space="preserve">
<polygon style="fill:#5B699C;" points="347.717,103.145 42.001,408.856 103.142,470.001 408.857,164.286 470,103.145 408.857,42 "/>
<g>
	<path style="fill:#9E8CEC;" d="M441.214,112.172c-6.334-0.525-12.577,1.765-17.072,6.257L118.43,424.143
		c-4.495,4.492-6.783,10.735-6.259,17.069c0.525,6.334,3.809,12.114,8.978,15.808l71.331,50.952
		c8.599,6.142,20.378,5.168,27.85-2.306l285.335-285.333c7.474-7.474,8.448-19.251,2.306-27.849l-50.953-71.333
		C453.326,115.98,447.545,112.694,441.214,112.172z"/>
	<path style="fill:#9E8CEC;" d="M389.885,54.293L319.519,4.03c-8.599-6.144-20.379-5.169-27.852,2.306L6.333,291.667
		c-7.474,7.474-8.448,19.249-2.306,27.849l50.952,71.334c3.694,5.172,9.474,8.452,15.808,8.978
		c6.332,0.523,12.577-1.765,17.069-6.257L393.573,87.86c0.004-0.004,0.01-0.013,0.02-0.022c8.442-8.442,8.442-22.127,0-30.57
		C392.446,56.122,391.2,55.13,389.885,54.293z"/>
</g>
<g>
	<path style="fill:#6A56CF;" d="M424.142,118.428L271.285,271.285L363,363.001l142.668-142.668
		c7.474-7.474,8.448-19.251,2.306-27.849l-50.953-71.333c-3.694-5.171-9.474-8.457-15.805-8.98
		C434.88,111.648,428.637,113.936,424.142,118.428z"/>
	<path style="fill:#6A56CF;" d="M393.593,87.84c8.442-8.442,8.442-22.127,0-30.57c-1.147-1.147-2.392-2.139-3.708-2.976
		L319.519,4.03c-8.599-6.144-20.379-5.169-27.852,2.306L148.999,149.001l91.716,91.716L393.573,87.86
		C393.577,87.856,393.583,87.848,393.593,87.84z"/>
</g>
<polygon style="fill:#2D4175;" points="347.717,103.145 225.429,225.431 286.57,286.573 408.857,164.286 470,103.145 408.857,42 "/>
<path style="fill:#F4C514;" d="M408.857,20.382c-5.733,0-11.232,2.277-15.285,6.332L332.43,87.858l-61.128,61.128
	c-0.004,0.006-0.009,0.007-0.014,0.013c-0.006,0.007-0.009,0.012-0.017,0.017l-61.113,61.116c-0.003,0.004-0.009,0.007-0.013,0.012
	c-0.004,0.003-0.007,0.009-0.013,0.012l-61.113,61.113c-0.006,0.006-0.013,0.012-0.019,0.017c-0.007,0.007-0.01,0.014-0.017,0.02
	L26.714,393.574c-8.441,8.441-8.441,22.129,0,30.571l61.142,61.142c4.054,4.057,9.553,6.335,15.285,6.334
	c5.733,0.001,11.232-2.277,15.285-6.334l61.135-61.134c0.004-0.001,0.006-0.006,0.01-0.009c0.004-0.006,0.006-0.006,0.01-0.012
	l183.408-183.409c0.006-0.003,0.007-0.006,0.012-0.009c0.004-0.003,0.006-0.006,0.01-0.012l61.132-61.134l61.142-61.139
	c8.441-8.439,8.441-22.127,0-30.57l-61.142-61.145C420.09,22.659,414.59,20.382,408.857,20.382z M378.288,164.286l-30.574,30.571
	l-30.568-30.57l30.571-30.571L378.288,164.286z M194.858,286.573l30.573-30.571L256,286.573l-30.57,30.571L194.858,286.573z
	 M194.858,347.714l-30.571,30.571l-30.571-30.571l30.571-30.57L194.858,347.714z M256,225.428l30.573-30.568l30.57,30.568
	l-30.573,30.574L256,225.428z M72.572,408.856l30.574-30.571l30.57,30.571l-30.573,30.574L72.572,408.856z M439.427,103.145
	l-30.568,30.571l-30.571-30.571l30.57-30.571L439.427,103.145z"/>
<path style="fill:#E9D535;" d="M408.857,20.382c-5.733,0-11.232,2.277-15.285,6.332L332.43,87.858l-61.128,61.128
	c-0.004,0.006-0.009,0.007-0.014,0.013c-0.006,0.007-0.009,0.012-0.017,0.017l-61.113,61.116c-0.003,0.004-0.009,0.007-0.013,0.012
	c0,0,0,0-0.001,0.001l91.713,91.712l61.134-61.134c0.006-0.003,0.007-0.006,0.012-0.009s0.006-0.006,0.01-0.012l61.132-61.134
	l61.142-61.139c8.441-8.439,8.441-22.127,0-30.57l-61.142-61.145C420.09,22.659,414.59,20.382,408.857,20.382z M317.143,225.428
	l-30.573,30.574L256,225.428l30.573-30.568L317.143,225.428z M378.288,164.286l-30.574,30.571l-30.568-30.57l30.571-30.571
	L378.288,164.286z M439.427,103.145l-30.568,30.571l-30.571-30.571l30.57-30.571L439.427,103.145z"/>
<g>
</g>
<g>
</g>
<g>
</g>
<g>
</g>
<g>
</g>
<g>
</g>
<g>
</g>
<g>
</g>
<g>
</g>
<g>
</g>
<g>
</g>
<g>
</g>
<g>
</g>
<g>
</g>
<g>
</g>
</svg>
