<?xml version="1.0" encoding="iso-8859-1"?>
<!-- Generator: Adobe Illustrator 19.0.0, SVG Export Plug-In . SVG Version: 6.00 Build 0)  -->
<svg version="1.1" id="Layer_1" xmlns="http://www.w3.org/2000/svg" xmlns:xlink="http://www.w3.org/1999/xlink" x="0px" y="0px"
	 viewBox="0 0 280.028 280.028" style="enable-background:new 0 0 280.028 280.028;" xml:space="preserve">
<g>
	<path style="fill:#EBEBEB;" d="M43.754,175.017V0H17.502C7.841,0,0,7.841,0,17.502v245.033c0,9.661,7.841,17.493,17.502,17.493
		h43.754c9.661,0,17.502-7.832,17.502-17.493v-78.766H52.505C47.675,183.768,43.754,179.856,43.754,175.017z M148.765,175.017V0
		h-17.502v175.017c0,4.839-3.912,8.751-8.751,8.751H96.259v78.766c0,9.661,7.841,17.493,17.502,17.493h52.505
		c9.661,0,17.502-7.832,17.502-17.493v-78.766h-26.253C152.676,183.768,148.765,179.856,148.765,175.017z M262.526,0h-26.253
		v175.017c0,4.839-3.912,8.751-8.751,8.751H201.27v78.766c0,9.661,7.841,17.493,17.502,17.493h43.754
		c9.661,0,17.502-7.832,17.502-17.493V17.502C280.027,7.841,272.187,0,262.526,0z"/>
	<path style="fill:#484848;" d="M166.266,0.009v157.507c0,4.839,3.912,8.751,8.751,8.751h35.003c4.839,0,8.751-3.912,8.751-8.751
		V0.009C218.771,0.009,166.266,0.009,166.266,0.009z M61.256,157.515c0,4.839,3.92,8.751,8.751,8.751h35.003
		c4.83,0,8.751-3.912,8.751-8.751V0.009H61.256V157.515z"/>
</g>
<g>
</g>
<g>
</g>
<g>
</g>
<g>
</g>
<g>
</g>
<g>
</g>
<g>
</g>
<g>
</g>
<g>
</g>
<g>
</g>
<g>
</g>
<g>
</g>
<g>
</g>
<g>
</g>
<g>
</g>
</svg>
