<?xml version="1.0" encoding="iso-8859-1"?>
<!-- Generator: Adobe Illustrator 19.0.0, SVG Export Plug-In . SVG Version: 6.00 Build 0)  -->
<svg version="1.1" id="Layer_1" xmlns="http://www.w3.org/2000/svg" xmlns:xlink="http://www.w3.org/1999/xlink" x="0px" y="0px"
	 viewBox="0 0 511.987 511.987" style="enable-background:new 0 0 511.987 511.987;" xml:space="preserve">
<path style="fill:#434A54;" d="M213.374,0C95.705,0,0.316,95.389,0.316,213.057s95.389,213.057,213.057,213.057
	c117.678,0,213.05-95.388,213.05-213.057S331.052,0,213.374,0z M213.374,223.713c-5.874,0-10.655-4.772-10.655-10.655
	s4.781-10.648,10.655-10.648c5.891,0,10.656,4.766,10.656,10.648S219.264,223.713,213.374,223.713z"/>
<path style="fill:#ED5564;" d="M213.374,149.144c-35.233,0-63.904,28.672-63.904,63.913c0,35.249,28.671,63.92,63.904,63.92
	c35.249,0,63.929-28.671,63.929-63.92C277.302,177.816,248.622,149.144,213.374,149.144z M213.374,223.713
	c-5.874,0-10.655-4.772-10.655-10.655s4.781-10.648,10.655-10.648c5.891,0,10.656,4.766,10.656,10.648
	S219.264,223.713,213.374,223.713z"/>
<path style="fill:#DA4453;" d="M213.374,138.489c-41.186,0-74.561,33.39-74.561,74.568c0,41.187,33.375,74.561,74.561,74.561
	c41.187,0,74.584-33.374,74.584-74.561C287.957,171.879,254.559,138.489,213.374,138.489z M213.374,266.321
	c-29.374,0-53.264-23.89-53.264-53.264c0-29.367,23.89-53.265,53.264-53.265c29.375,0,53.265,23.897,53.265,53.265
	C266.638,242.431,242.749,266.321,213.374,266.321z"/>
<g>
	<path style="fill:#656D78;" d="M213.374,85.224c-5.874,0-10.655,4.766-10.655,10.648c0,5.891,4.781,10.656,10.655,10.656
		c28.469,0,55.218,11.077,75.334,31.202c20.125,20.124,31.188,46.873,31.188,75.326h21.312
		C341.207,142.458,283.988,85.224,213.374,85.224z"/>
	<path style="fill:#656D78;" d="M213.374,42.608c-5.874,0-10.655,4.773-10.655,10.656S207.5,63.92,213.374,63.92
		c20.156,0,39.671,3.938,58.046,11.71c17.757,7.508,33.726,18.266,47.413,31.969c13.719,13.702,24.468,29.655,31.968,47.412
		c7.78,18.375,11.718,37.905,11.718,58.046h21.312C383.831,118.927,307.52,42.608,213.374,42.608z"/>
	<path style="fill:#656D78;" d="M213.374,319.586c-28.452,0-55.201-11.078-75.326-31.202
		c-20.124-20.117-31.202-46.866-31.202-75.326c0-5.883-4.766-10.648-10.655-10.648c-5.875,0-10.641,4.766-10.641,10.648
		c0,70.592,57.232,127.84,127.824,127.84c5.891,0,10.656-4.78,10.656-10.655S219.264,319.586,213.374,319.586z"/>
	<path style="fill:#656D78;" d="M213.374,362.209c-20.14,0-39.67-3.952-58.045-11.718c-17.75-7.516-33.702-18.28-47.405-31.968
		c-13.702-13.719-24.468-29.655-31.968-47.421c-7.781-18.374-11.719-37.897-11.719-58.045c0-5.883-4.765-10.648-10.655-10.648
		c-5.875,0-10.656,4.766-10.656,10.648c0,94.138,76.326,170.448,170.448,170.448c5.891,0,10.656-4.766,10.656-10.656
		S219.264,362.209,213.374,362.209z"/>
</g>
<path style="fill:#DBADA2;" d="M318.582,453.238l-64.069-150.23c-6.812-16.265,0.875-34.983,17.156-41.787
	c16.288-6.805,35.007,0.875,41.819,17.163l37.687,90.044L318.582,453.238z"/>
<g>
	<path style="fill:#EAC6BB;" d="M330.552,128.513c11.78,0,21.312,9.539,21.312,21.304v163.332h-42.593V149.816
		C309.27,138.052,318.802,128.513,330.552,128.513z"/>
	<path style="fill:#EAC6BB;" d="M383.831,107.201c11.75,0,21.281,9.546,21.281,21.312v163.324h-42.594V128.513
		C362.517,116.747,372.049,107.201,383.831,107.201z"/>
	<path style="fill:#EAC6BB;" d="M437.078,128.513c11.781,0,21.312,9.539,21.312,21.304v163.332h-42.593V149.816
		C415.798,138.052,425.329,128.513,437.078,128.513z"/>
	<path style="fill:#EAC6BB;" d="M490.358,171.113c11.781,0,21.312,9.555,21.312,21.319v163.309h-42.623V192.432
		C469.047,180.668,478.578,171.113,490.358,171.113z"/>
	<path style="fill:#EAC6BB;" d="M309.27,410.803V278.977h42.593c0,2.922,2.406,5.328,5.343,5.328c2.938,0,5.312-2.406,5.312-5.328
		h42.594c0,2.922,2.406,5.328,5.344,5.328c2.937,0,5.343-2.406,5.343-5.328h42.593c0,2.922,2.375,5.328,5.344,5.328
		c2.906,0,5.312-2.406,5.312-5.328h42.623v131.826c0,55.873-45.342,101.184-101.215,101.184
		C354.582,511.986,309.27,466.676,309.27,410.803z"/>
</g>
<g>
</g>
<g>
</g>
<g>
</g>
<g>
</g>
<g>
</g>
<g>
</g>
<g>
</g>
<g>
</g>
<g>
</g>
<g>
</g>
<g>
</g>
<g>
</g>
<g>
</g>
<g>
</g>
<g>
</g>
</svg>
