<?xml version="1.0" encoding="iso-8859-1"?>
<!-- Generator: Adobe Illustrator 19.0.0, SVG Export Plug-In . SVG Version: 6.00 Build 0)  -->
<svg version="1.1" id="Layer_1" xmlns="http://www.w3.org/2000/svg" xmlns:xlink="http://www.w3.org/1999/xlink" x="0px" y="0px"
	 viewBox="0 0 511.989 511.989" style="enable-background:new 0 0 511.989 511.989;" xml:space="preserve">
<g>
	<g>
		<path style="fill:#2D404E;" d="M269.808,511.989c-32.606-65.955-95.681-52.65-146.363-41.962
			c-33.169,6.996-61.818,13.038-71.063-8.641c-8.568-20.093-5.408-42.132,9.138-63.734c10.604-15.747,23.5-25.712,24.044-26.128
			l7.91,10.316c-0.458,0.353-45.646,35.727-29.134,74.446c5.056,11.854,28.86,6.834,56.423,1.021
			c26.388-5.565,56.297-11.873,85.077-7.818c34.408,4.848,59.145,23.407,75.623,56.738L269.808,511.989z"/>
	</g>
	<g>
		<polygon style="fill:#2D404E;" points="113.003,316.364 95.375,346.923 119.128,370.794 149.535,353.079 		"/>
	</g>
	<g>
		<path style="fill:#253744;" d="M146.681,354.741l2.854-1.662l-36.531-36.715l-17.628,30.559l6.019,6.049l15.341-22.848
			C127.148,338.862,139.859,350.173,146.681,354.741z"/>
	</g>
	<g>
		<path style="fill:#586A73;" d="M440.092,116.114c-29.217,29.365-73.343,32.625-98.557,7.285s-21.969-69.688,7.249-99.051
			c29.218-29.365,73.343-32.627,98.558-7.285C472.556,42.403,469.311,86.751,440.092,116.114z"/>
	</g>
	<g>
		<path style="fill:#2D404E;" d="M116.12,372.733c-0.511,0.512-1.34,0.512-1.851,0l-20.822-20.928c-0.511-0.514-0.511-1.346,0-1.859
			l0,0c0.512-0.514,1.34-0.514,1.851,0l20.822,20.926C116.631,371.386,116.631,372.218,116.12,372.733L116.12,372.733z"/>
	</g>
	<g>
		<path style="fill:#2D404E;" d="M111.108,374.825c-0.512,0.514-1.286,0.566-1.731,0.119l-18.131-18.221
			c-0.444-0.447-0.391-1.227,0.12-1.74l0,0c0.511-0.514,1.286-0.566,1.731-0.119l18.13,18.221
			C111.672,373.532,111.619,374.311,111.108,374.825L111.108,374.825z"/>
	</g>
	<g>
		<path style="fill:#2D404E;" d="M106.327,376.839c-0.439,0.443-1.106,0.488-1.487,0.105l-15.582-15.66
			c-0.382-0.383-0.336-1.053,0.104-1.494l0,0c0.439-0.443,1.105-0.488,1.487-0.105l15.581,15.66
			C106.812,375.727,106.765,376.397,106.327,376.839L106.327,376.839z"/>
	</g>
	<g>
		<polygon style="fill:#2D404E;" points="96.224,369.942 88.55,362.229 81.378,373.391 87.086,379.126 92.792,384.862 
			103.898,377.653 		"/>
	</g>
	<g>
		<path style="fill:#2D404E;" d="M370.201,155.813L309.285,94.59L115.156,308.053c0,0-5.116,3.625-1.619,9.301
			c7.798,7.857,27.674,27.875,35.013,35.188c5.647,3.516,9.254-1.627,9.254-1.627L370.201,155.813z"/>
	</g>
	<g>
		<path style="fill:#586A73;" d="M329.703,105.956c2.792,6.406,6.729,12.314,11.832,17.443c8.326,8.369,18.715,13.615,29.946,15.834
			l-39.792-39.99C330.989,101.456,330.322,103.69,329.703,105.956z"/>
	</g>
	<g>
		<path style="fill:#586A73;" d="M325.781,93.304c0.854,4.367,2.159,8.609,3.923,12.652c0.618-2.266,1.285-4.5,1.986-6.713
			L325.781,93.304z"/>
	</g>
	<g>
		<path style="fill:#253744;" d="M309.285,94.591L115.156,308.054c0,0-5.116,3.625-1.619,9.301c1.887,1.9,4.483,4.518,7.436,7.49
			l205.311-213.17L309.285,94.591z"/>
	</g>
	<g>
		<path style="fill:#2D404E;" d="M440.092,116.114c1.067-1.072,2.097-2.168,3.094-3.279l-91.139-91.596
			c-1.105,1.002-2.195,2.037-3.263,3.109c-0.62,0.623-1.224,1.256-1.82,1.891l91.246,91.705
			C438.843,117.345,439.473,116.737,440.092,116.114z"/>
	</g>
	<g>
		<path style="fill:#E2E5E7;" d="M448.296,112.825c-2.556,2.568-6.698,2.568-9.254,0l-86.984-87.422
			c-2.555-2.566-2.555-6.732,0-9.299l0.585-0.588c2.556-2.568,6.699-2.57,9.255,0l86.983,87.42c2.556,2.568,2.556,6.732,0,9.301
			L448.296,112.825z"/>
	</g>
	<g>
		<path style="fill:#2D404E;" d="M383.036,36.761c3.041-3.766,6.29-7.322,9.584-10.633c12.691-12.754,26.696-18.273,38.521-20.432
			c-21.31-9.945-48.446-6.758-70.62,8.77c0.491,0.283,0.957,0.629,1.377,1.051L383.036,36.761z"/>
	</g>
	<g>
		<path style="fill:#2D404E;" d="M374.897,48.356l-22.839-22.953c-0.772-0.775-1.307-1.697-1.612-2.676
			c-0.559,0.531-1.112,1.07-1.661,1.621c-29.218,29.363-32.463,73.711-7.249,99.051c16.666,16.75,41.593,21,65.017,13.479
			C358.634,104.858,360.057,73.282,374.897,48.356z"/>
	</g>
	<g>
		<path style="fill:#E2E5E7;" d="M448.296,112.825l0.585-0.588c2.136-2.146,2.479-5.404,1.046-7.918
			c-2.436,3.514-5.178,6.902-8.221,10.125C443.957,115.155,446.513,114.616,448.296,112.825z"/>
	</g>
	<g>
		<path style="fill:#D1D5D5;" d="M383.036,36.761l-21.139-21.244c-0.42-0.422-0.886-0.768-1.377-1.051
			c-2.501-1.441-5.742-1.096-7.878,1.051l-0.585,0.588c-1.783,1.793-2.317,4.359-1.612,6.623c0.306,0.979,0.84,1.9,1.612,2.676
			l22.839,22.953C377.308,44.307,380.072,40.433,383.036,36.761z"/>
	</g>
	<g>
		<path style="fill:#D1D5D5;" d="M389.558,151.091c-1.733,1.742-9.891-3.631-12.625-6.379l-56.604-56.887
			c-2.734-2.748-8.08-10.945-6.347-12.689l2.051-2.061c1.733-1.742,5.355-0.926,8.091,1.822l65.672,66.002
			c2.734,2.748,3.546,6.389,1.812,8.131L389.558,151.091z"/>
	</g>
	<g>
		<polygon style="fill:#253744;" points="368.044,153.645 311.44,96.759 320.273,87.882 376.877,144.768 		"/>
	</g>
	<g>
		<path style="fill:#253744;" d="M95.298,349.946c-0.511-0.514-1.339-0.514-1.851,0c-0.511,0.514-0.511,1.346,0,1.859l5.058,5.084
			l1.576-2.137L95.298,349.946z"/>
	</g>
	<g>
		<path style="fill:#253744;" d="M91.366,354.983c-0.511,0.514-0.564,1.293-0.12,1.74l4.24,4.262l1.575-2.137l-3.964-3.984
			C92.652,354.417,91.876,354.47,91.366,354.983z"/>
	</g>
	<g>
		<path style="fill:#253744;" d="M89.361,359.79c-0.439,0.441-0.485,1.111-0.104,1.494l3.451,3.469l1.354-1.838l-3.214-3.23
			C90.466,359.302,89.8,359.347,89.361,359.79z"/>
	</g>
	<g>
		<polygon style="fill:#253744;" points="81.378,373.391 84.228,376.255 92.006,365.704 88.55,362.229 		"/>
	</g>
	<g>
		<polygon style="fill:#253744;" points="271.252,136.411 328.589,194.036 326.219,196.419 265.979,141.71 		"/>
	</g>
	<g style="opacity:0.45;">
		<polygon style="fill:#586A73;" points="355.88,148.2 363.284,155.641 329.043,188.657 322.764,182.567 		"/>
	</g>
	<g style="opacity:0.45;">
		<polygon style="fill:#586A73;" points="315.315,191.294 319.942,195.944 153.743,348.849 		"/>
	</g>
	<g>
		<path style="fill:#586A73;" d="M255.502,224.722c-3.643,3.662-9.906,3.305-13.988-0.799l0,0
			c-4.082-4.104-4.438-10.396-0.795-14.059l27.623-27.76c3.644-3.662,9.906-3.305,13.988,0.797l0,0
			c4.082,4.104,4.438,10.398,0.795,14.059L255.502,224.722z"/>
	</g>
	<g>
		<path style="fill:#C6CBCB;" d="M242.44,222.993c-3.565-3.584-3.922-9.057-0.795-12.199l27.622-27.76
			c3.128-3.145,8.572-2.785,12.138,0.797c3.566,3.584,3.922,9.057,0.795,12.199l-27.622,27.762
			C251.45,226.934,246.005,226.577,242.44,222.993z"/>
	</g>
	<g>
		<polygon style="fill:#253744;" points="254.504,217.532 254.504,217.532 247.872,210.868 247.872,210.868 262.833,195.831 
			262.833,195.831 269.465,202.497 269.465,202.497 		"/>
	</g>
	<g>
		<g>
			<path style="fill:#253744;" d="M268.576,196.552c-0.941,0.945-2.049,0.912-2.819,0.139c-0.796-0.801-0.688-1.914,0.133-2.738
				c0.867-0.871,2.021-0.934,2.812-0.139C269.518,194.634,269.38,195.743,268.576,196.552z M266.443,194.483
				c-0.574,0.578-0.741,1.324-0.249,1.818c0.494,0.496,1.237,0.312,1.823-0.277c0.529-0.531,0.768-1.297,0.255-1.812
				C267.764,193.702,267.023,193.901,266.443,194.483z"/>
		</g>
		<g>
			<path style="fill:#253744;" d="M267.579,198.431l2.808-2.822l0.587,0.59l-0.479,1.939c-0.129,0.498-0.287,0.992-0.463,1.428
				l0.009,0.008c0.337-0.414,0.691-0.787,1.121-1.219l0.978-0.982l0.476,0.477l-2.808,2.822l-0.533-0.537l0.504-1.98
				c0.13-0.488,0.287-1.016,0.467-1.473l-0.021-0.012c-0.342,0.385-0.704,0.766-1.166,1.23l-1.005,1.008L267.579,198.431z"/>
		</g>
	</g>
	<g>
		<g>
			<path style="fill:#253744;" d="M247.504,216.298c-0.941,0.945-2.049,0.912-2.819,0.137c-0.796-0.799-0.688-1.912,0.133-2.736
				c0.867-0.871,2.021-0.934,2.812-0.139C248.447,214.38,248.308,215.489,247.504,216.298z M245.372,214.229
				c-0.575,0.578-0.742,1.322-0.25,1.816c0.495,0.498,1.237,0.314,1.823-0.275c0.529-0.533,0.768-1.299,0.255-1.812
				C246.693,213.446,245.952,213.647,245.372,214.229z"/>
		</g>
		<g>
			<path style="fill:#253744;" d="M249.32,215.358l1.625,1.633l-0.42,0.424l-1.113-1.119l-0.774,0.779l1.033,1.037l-0.417,0.42
				l-1.033-1.039l-1.195,1.201l-0.512-0.514L249.32,215.358z"/>
		</g>
		<g>
			<path style="fill:#253744;" d="M251.44,217.489l1.624,1.633l-0.42,0.422l-1.113-1.117l-0.774,0.777l1.033,1.041l-0.416,0.418
				l-1.033-1.039l-1.196,1.201l-0.511-0.514L251.44,217.489z"/>
		</g>
	</g>
	<g>
		<path style="fill:#253744;" d="M279.259,193.274c-2.001,2.012-5.247,2.012-7.249,0s-2.002-5.273,0-7.285
			c2.001-2.014,5.248-2.014,7.249,0C281.261,188.001,281.262,191.263,279.259,193.274z"/>
	</g>
	<g>
		<polygon style="fill:#C6CBCB;" points="262.698,210.731 254.64,202.632 255.434,201.835 263.492,209.934 		"/>
	</g>
	<g>
		<path style="fill:#DF584C;" d="M257.836,347.144l-3.872,17.168l-7.062,31.312c-3.406-2.007-7.892-2.799-12.538-1.771
			c-8.546,1.886-14.259,9.042-12.759,15.981c1.498,6.939,9.644,11.038,18.191,9.157c5.729-1.268,10.176-4.906,12.034-9.258l0,0l0,0
			c0.577-1.356,0.914-2.773,0.95-4.217l9.122-40.439l46.017,4.433l-7.327,32.479c-3.426-2.098-7.995-2.94-12.729-1.896
			c-8.547,1.888-14.261,9.043-12.759,15.984c1.497,6.939,9.644,11.038,18.189,9.153c5.731-1.265,10.176-4.902,12.036-9.254
			l0.207,0.046l10.318-45.748l3.408-15.111l0.388-1.715L257.836,347.144z"/>
	</g>
	<g>
		<path style="fill:#EB8923;" d="M434.153,369.409l7.102-25.698l-44.952-0.479l-7.245,26.222l-13.215,47.82
			c-5.113-3.346-11.982-4.892-19.235-3.644c-13.34,2.291-22.693,12.922-20.887,23.746c1.804,10.819,14.085,17.735,27.425,15.448
			c8.944-1.536,16.082-6.835,19.274-13.415l0,0l0,0c0.991-2.053,1.616-4.215,1.778-6.44l17.557-63.529L434.153,369.409z"/>
	</g>
	<g>
		<path style="fill:#EA8EBC;" d="M407.85,266.246l6.742-18.639l-33.291-2.938l-6.877,19.019l-12.544,34.685
			c-3.598-2.773-8.6-4.313-14.048-3.807c-10.019,0.933-17.562,8.274-16.846,16.401c0.715,8.122,9.421,13.954,19.439,13.026
			c6.718-0.625,12.312-4.143,15.057-8.836l0,0l0,0c0.854-1.465,1.44-3.03,1.689-4.672l16.663-46.078L407.85,266.246z"/>
	</g>
</g>
<g>
</g>
<g>
</g>
<g>
</g>
<g>
</g>
<g>
</g>
<g>
</g>
<g>
</g>
<g>
</g>
<g>
</g>
<g>
</g>
<g>
</g>
<g>
</g>
<g>
</g>
<g>
</g>
<g>
</g>
</svg>
