<?xml version="1.0" encoding="iso-8859-1"?>
<!-- Generator: Adobe Illustrator 19.0.0, SVG Export Plug-In . SVG Version: 6.00 Build 0)  -->
<svg version="1.1" id="Layer_1" xmlns="http://www.w3.org/2000/svg" xmlns:xlink="http://www.w3.org/1999/xlink" x="0px" y="0px"
	 viewBox="0 0 512 512" style="enable-background:new 0 0 512 512;" xml:space="preserve">
<path style="fill:#38454F;" d="M467.862,66.207H44.138c-9.71,0-17.655,8.828-17.655,19.421v307.2h167.724l17.655,17.655h88.276
	l17.655-17.655h167.724v-307.2C485.517,75.034,477.572,66.207,467.862,66.207"/>
<path style="fill:#ECF0F1;" d="M0,392.828h194.207l17.655,17.655h88.276l17.655-17.655H512v31.779
	c0,11.476-9.71,21.186-21.186,21.186H21.186C9.71,445.793,0,436.083,0,424.607V392.828z"/>
<g>
	<path style="fill:#546A79;" d="M132.414,110.345H61.793c-5.297,0-8.828-3.531-8.828-8.828c0-5.297,3.531-8.828,8.828-8.828h70.621
		c5.297,0,8.828,3.531,8.828,8.828C141.241,106.814,137.71,110.345,132.414,110.345z"/>
	<path style="fill:#546A79;" d="M105.931,145.655H61.793c-5.297,0-8.828-3.531-8.828-8.828S56.497,128,61.793,128h44.138
		c5.297,0,8.828,3.531,8.828,8.828S111.228,145.655,105.931,145.655z"/>
</g>
<polygon style="fill:#F29C1F;" points="256,101.517 317.793,136.828 317.793,207.448 256,242.759 194.207,207.448 194.207,136.828 
	"/>
<path style="fill:#CC801B;" d="M229.517,198.621c-5.297,0-8.828-3.531-8.828-8.828v-32.662c0-3.531,1.766-7.062,5.297-7.945
	l26.483-11.476c4.414-1.766,9.71,0,11.476,4.414c1.766,4.414,0,9.71-4.414,11.476l-21.186,9.71v26.483
	C238.345,195.09,234.814,198.621,229.517,198.621z"/>
<polygon style="fill:#3B97D3;" points="194.207,207.448 256,242.759 256,313.379 194.207,348.69 132.414,313.379 132.414,242.759 
	"/>
<path style="fill:#2D769E;" d="M167.724,304.552c-5.297,0-8.828-3.531-8.828-8.828v-32.662c0-3.531,1.766-7.062,5.297-7.945
	l26.483-11.476c4.414-1.766,9.71,0,11.476,4.414c1.766,4.414,0,9.71-4.414,11.476l-21.186,9.71v26.483
	C176.552,301.021,173.021,304.552,167.724,304.552z"/>
<polygon style="fill:#71C285;" points="317.793,207.448 379.586,242.759 379.586,313.379 317.793,348.69 256,313.379 256,242.759 
	"/>
<path style="fill:#599967;" d="M291.31,304.552c-5.297,0-8.828-3.531-8.828-8.828v-32.662c0-3.531,1.766-7.062,5.297-7.945
	l26.483-11.476c4.414-1.766,9.71,0,11.476,4.414s0,9.71-4.414,11.476l-21.186,9.71v26.483
	C300.138,301.021,296.607,304.552,291.31,304.552z"/>
<g>
</g>
<g>
</g>
<g>
</g>
<g>
</g>
<g>
</g>
<g>
</g>
<g>
</g>
<g>
</g>
<g>
</g>
<g>
</g>
<g>
</g>
<g>
</g>
<g>
</g>
<g>
</g>
<g>
</g>
</svg>
