<?xml version="1.0" encoding="iso-8859-1"?>
<!-- Generator: Adobe Illustrator 19.1.0, SVG Export Plug-In . SVG Version: 6.00 Build 0)  -->
<svg version="1.1" id="Capa_1" xmlns="http://www.w3.org/2000/svg" xmlns:xlink="http://www.w3.org/1999/xlink" x="0px" y="0px"
	 viewBox="0 0 469.53 469.53" style="enable-background:new 0 0 469.53 469.53;" xml:space="preserve">
<g>
	<path style="fill:#6DC0CF;" d="M442.802,261.495c0-114.891-93.14-208.032-208.035-208.032
		c-114.899,0-208.039,93.141-208.039,208.032c0,114.895,93.14,208.035,208.039,208.035
		C349.662,469.53,442.802,376.39,442.802,261.495z"/>
	<g>
		<path style="fill:#505B66;" d="M129.759,191.105c-42.445,0-76.853,34.409-76.853,76.849c0,42.442,34.408,76.849,76.853,76.849
			c42.446,0,76.853-34.408,76.853-76.849C206.611,225.514,172.204,191.105,129.759,191.105z M129.759,322.714
			c-30.244,0-54.763-24.522-54.763-54.761c0-30.239,24.519-54.758,54.763-54.758c30.245,0,54.763,24.519,54.763,54.758
			C184.521,298.193,160.004,322.714,129.759,322.714z"/>
		<g style="opacity:0.23;">
			<path style="fill:#505B66;" d="M74.996,267.953c0-30.239,24.519-54.758,54.763-54.758c17.54,0,33.143,8.255,43.164,21.083
				c-9.411-16.583-27.215-27.778-47.646-27.778c-30.244,0-54.763,24.52-54.763,54.758c0,12.702,4.339,24.385,11.599,33.677
				C77.591,286.968,74.996,277.764,74.996,267.953z"/>
			<path style="fill:#505B66;" d="M191.286,221.901c6.881,11.515,10.845,24.973,10.845,39.357c0,42.441-34.408,76.85-76.853,76.85
				c-25.168,0-47.507-12.099-61.527-30.795c13.417,22.451,37.953,37.49,66.008,37.49c42.446,0,76.853-34.408,76.853-76.849
				C206.611,250.678,200.909,234.736,191.286,221.901z"/>
		</g>
		<rect x="110.677" style="fill:#F57078;" width="38.163" height="220.573"/>
		<rect x="110.677" y="180.875" style="fill:#FFFFFF;" width="38.163" height="39.698"/>
		<rect x="144.012" style="opacity:0.27;fill:#F57078;" width="4.828" height="220.573"/>
	</g>
	<g>
		<path style="fill:#505B66;" d="M339.771,191.105c-42.446,0-76.853,34.409-76.853,76.849c0,42.442,34.407,76.849,76.853,76.849
			c42.445,0,76.852-34.408,76.852-76.849C416.623,225.514,382.216,191.105,339.771,191.105z M339.771,322.714
			c-30.245,0-54.763-24.522-54.763-54.761c0-30.239,24.517-54.758,54.763-54.758c30.244,0,54.763,24.519,54.763,54.758
			C394.534,298.193,370.015,322.714,339.771,322.714z"/>
		<g style="opacity:0.23;">
			<path style="fill:#505B66;" d="M285.008,267.953c0-30.239,24.517-54.758,54.763-54.758c17.539,0,33.143,8.255,43.164,21.083
				c-9.411-16.583-27.215-27.778-47.646-27.778c-30.244,0-54.763,24.52-54.763,54.758c0,12.702,4.339,24.385,11.599,33.677
				C287.603,286.968,285.008,277.764,285.008,267.953z"/>
			<path style="fill:#505B66;" d="M401.298,221.901c6.881,11.515,10.845,24.973,10.845,39.357c0,42.441-34.408,76.85-76.854,76.85
				c-25.168,0-47.508-12.099-61.527-30.795c13.418,22.451,37.953,37.49,66.009,37.49c42.445,0,76.852-34.408,76.852-76.849
				C416.623,250.678,410.921,234.736,401.298,221.901z"/>
		</g>
		<rect x="320.689" style="fill:#F57078;" width="38.163" height="220.573"/>
		<rect x="320.689" y="180.875" style="fill:#FFFFFF;" width="38.163" height="39.698"/>
		<rect x="354.023" style="opacity:0.27;fill:#F57078;" width="4.829" height="220.573"/>
	</g>
	<path style="fill:#6DC0CF;" d="M192.253,396.522c0-10.53-27.98-19.067-62.492-19.067c-26.926,0-49.872,5.193-58.662,12.478
		c5.958,7.582,12.438,14.731,19.373,21.411c10.734,2.65,24.4,4.241,39.289,4.241C164.273,415.585,192.253,407.051,192.253,396.522z"
		/>
	<path style="opacity:0.42;fill:#477D87;" d="M192.253,396.522c0-10.53-27.98-19.067-62.492-19.067
		c-26.926,0-49.872,5.193-58.662,12.478c5.958,7.582,12.438,14.731,19.373,21.411c10.734,2.65,24.4,4.241,39.289,4.241
		C164.273,415.585,192.253,407.051,192.253,396.522z"/>
	<path style="fill:#6DC0CF;" d="M398.431,389.933c-8.792-7.284-31.736-12.478-58.659-12.478c-34.516,0-62.495,8.537-62.495,19.067
		c0,10.528,27.979,19.063,62.495,19.063c14.886,0,28.551-1.591,39.285-4.241C385.992,404.664,392.474,397.515,398.431,389.933z"/>
	<path style="opacity:0.42;fill:#477D87;" d="M398.431,389.933c-8.792-7.284-31.736-12.478-58.659-12.478
		c-34.516,0-62.495,8.537-62.495,19.067c0,10.528,27.979,19.063,62.495,19.063c14.886,0,28.551-1.591,39.285-4.241
		C385.992,404.664,392.474,397.515,398.431,389.933z"/>
</g>
<g>
</g>
<g>
</g>
<g>
</g>
<g>
</g>
<g>
</g>
<g>
</g>
<g>
</g>
<g>
</g>
<g>
</g>
<g>
</g>
<g>
</g>
<g>
</g>
<g>
</g>
<g>
</g>
<g>
</g>
</svg>
