<?xml version="1.0" encoding="iso-8859-1"?>
<!-- Generator: Adobe Illustrator 19.0.0, SVG Export Plug-In . SVG Version: 6.00 Build 0)  -->
<svg version="1.1" id="Capa_1" xmlns="http://www.w3.org/2000/svg" xmlns:xlink="http://www.w3.org/1999/xlink" x="0px" y="0px"
	 viewBox="0 0 56.662 56.662" style="enable-background:new 0 0 56.662 56.662;" xml:space="preserve">
<path style="fill:#CB8252;" d="M3.238,2.89c0.902-0.859,2.306-0.696,3,0.27l25.344,34.708c1.672,2.29,3.449,3.454,6.284,3.463h16.18
	c0.137,0,0.272,0.01,0.403,0.028c1.809,0.253,2.733,2.344,1.911,3.976l-1.803,3.581c-0.375,0.75-1.295,1.415-2.133,1.415H37.865
	c-3.529,0-6.818-1.784-8.744-4.741L3.011,5.493C2.48,4.677,2.533,3.562,3.238,2.89z"/>
<polygon style="fill:#F0C419;" points="40.662,50.331 47.662,50.331 49.662,41.331 42.662,41.331 "/>
<polygon style="fill:#546A79;" points="7.487,12.367 13.11,21.002 17.216,18.195 10.959,9.626 "/>
<g>
	<path style="fill:#7F5B53;" d="M31.581,37.868c0.176,0.242,0.361,0.467,0.549,0.687L53.659,5.493
		c0.531-0.816,0.479-1.931-0.226-2.603c-0.902-0.86-2.306-0.696-3,0.27L28.335,33.423L31.581,37.868z"/>
	<path style="fill:#7F5B53;" d="M24.545,38.563c-1.512,1.827-3.15,2.761-5.68,2.769H2.686c-1.097,0-1.911,0.352-2.38,1.241
		c-0.451,0.853-0.375,1.892,0.05,2.758l1.758,3.586c0.375,0.75,0.914,1.415,1.753,1.415h2.797c0-2.2,1.8-4,4-4h10
		c1.597,0,2.972,0.954,3.612,2.315c1.372-0.849,2.574-1.981,3.482-3.375l0.578-0.888L24.545,38.563z"/>
</g>
<path style="fill:#F9EAB0;" d="M10.662,46.331h5.111l-1.111-5h-7l1.21,5.445C9.414,46.501,10.017,46.331,10.662,46.331z"/>
<polygon style="fill:#CBB292;" points="43.276,21.438 48.86,12.862 45.225,10.292 39.059,18.737 "/>
<path style="fill:#38454F;" d="M20.662,54.331h-10c-2.2,0-4-1.8-4-4v0c0-2.2,1.8-4,4-4h10c2.2,0,4,1.8,4,4v0
	C24.662,52.531,22.862,54.331,20.662,54.331z"/>
<g>
</g>
<g>
</g>
<g>
</g>
<g>
</g>
<g>
</g>
<g>
</g>
<g>
</g>
<g>
</g>
<g>
</g>
<g>
</g>
<g>
</g>
<g>
</g>
<g>
</g>
<g>
</g>
<g>
</g>
</svg>
